<svg width="72" height="72" viewBox="0 0 72 72" fill="none" xmlns="http://www.w3.org/2000/svg">
<path fill-rule="evenodd" clip-rule="evenodd" d="M38.1088 17.4647C51.3726 17.4647 62.1251 28.2171 62.1251 41.481C62.1251 54.7448 61.3794 69.5 38.1088 69.5C25.161 69.5 18.127 61.203 15.4183 51.4595C11.3132 51.1167 8.08841 47.6761 8.08841 43.4823C8.08841 39.4931 11.0063 36.1854 14.8242 35.577C17.4547 25.1678 26.8822 17.4647 38.1088 17.4647ZM14.4786 42.0359L15.3074 45.1289L14.4786 42.0359Z" fill="white"/>
<path d="M14.4786 42.0359L15.3074 45.1289M38.1088 17.4647C51.3726 17.4647 62.1251 28.2171 62.1251 41.481C62.1251 54.7448 61.3794 69.5 38.1088 69.5C25.161 69.5 18.127 61.203 15.4183 51.4595C11.3132 51.1167 8.08841 47.6761 8.08841 43.4823C8.08841 39.4931 11.0063 36.1854 14.8242 35.577C17.4547 25.1678 26.8822 17.4647 38.1088 17.4647Z" stroke="black" stroke-width="2.40163" stroke-linecap="round" stroke-linejoin="round"/>
<path d="M48.6941 39.1577L51.025 47.8569" stroke="black" stroke-width="1.60109" stroke-linecap="round" stroke-linejoin="round"/>
<path d="M42.1115 56.4911C43.49 57.0248 44.8243 57.2917 46.1142 57.2917C47.4042 57.2917 48.7384 57.0248 50.1169 56.4911" stroke="black" stroke-width="1.60109" stroke-linecap="round" stroke-linejoin="round"/>
<path fill-rule="evenodd" clip-rule="evenodd" d="M41.9114 31.174C43.6799 31.174 45.1135 32.6077 45.1135 34.3762C45.1135 36.1447 43.6799 37.5784 41.9114 37.5784C40.1429 37.5784 38.7092 36.1447 38.7092 34.3762C38.7092 32.6077 40.1429 31.174 41.9114 31.174ZM55.7207 31.174C57.4893 31.174 58.9229 32.6077 58.9229 34.3762C58.9229 36.1447 57.4893 37.5784 55.7207 37.5784C53.9522 37.5784 52.5186 36.1447 52.5186 34.3762C52.5186 32.6077 53.9522 31.174 55.7207 31.174Z" fill="black"/>
<path fill-rule="evenodd" clip-rule="evenodd" d="M41.9114 28.1438C43.9702 28.4517 45.4712 29.0691 46.4144 29.9959C44.9134 29.4346 43.4124 29.154 41.9114 29.154C40.4103 29.154 38.5758 29.4346 36.4076 29.9959L37.4083 28.6489C38.3515 28.0043 39.8525 27.8359 41.9114 28.1438ZM55.7207 28.1438C57.7796 27.8359 59.2806 28.0043 60.2238 28.6489L61.2245 29.9959C59.0563 29.4346 57.2218 29.154 55.7207 29.154C54.2197 29.154 52.7187 29.4346 51.2177 29.9959C52.1609 29.0691 53.6619 28.4517 55.7207 28.1438Z" fill="black" stroke="black" stroke-width="1.60109" stroke-linecap="round" stroke-linejoin="round"/>
<path fill-rule="evenodd" clip-rule="evenodd" d="M42.3306 29.8084C43.5737 29.8979 45.0153 30.2095 46.6555 30.7434C47.1256 30.8964 47.8675 30.9851 48.8811 31.0094L48.9498 31.0076C49.9283 30.981 50.6473 30.8929 51.1067 30.7434C52.7469 30.2095 54.1886 29.8979 55.4316 29.8084C57.1914 29.6818 60.0267 29.8946 63.9376 30.4467L64.0565 30.4635V32.5378C63.5558 32.7579 63.3011 32.9762 63.2923 33.1929C63.0739 38.5424 61.2885 40.1801 57.2876 40.1801C53.4344 40.1801 51.604 38.0882 49.9729 33.7387C49.7591 33.1686 49.4057 32.8776 48.9128 32.8657L48.8811 32.8653C48.3716 32.8653 48.0077 33.1565 47.7894 33.7387C46.1583 38.0882 44.3279 40.1801 40.4746 40.1801C36.4738 40.1801 34.6884 38.5424 34.47 33.1929C34.4612 32.9762 34.2065 32.7579 33.7059 32.5379L33.7058 32.5749L13.7923 34.5763L14.1925 33.6757L33.7057 30.4735L33.7058 30.4635C37.6782 29.8989 40.5531 29.6806 42.3306 29.8084ZM41.3722 30.4706C38.2061 30.2523 36.7868 30.9073 36.1317 31.6716C35.4767 32.4358 34.2758 39.0955 40.062 39.423C45.8483 39.7505 46.3942 32.9817 46.0667 32.2174C45.7392 31.4532 44.5382 30.689 41.3722 30.4706ZM56.3793 30.4706C53.2132 30.689 52.0123 31.4532 51.6847 32.2174C51.3572 32.9817 51.9031 39.7505 57.6894 39.423C63.4757 39.0955 62.2747 32.4358 61.6197 31.6716C60.9646 30.9073 59.5453 30.2523 56.3793 30.4706Z" fill="black" stroke="black" stroke-width="0.400272" stroke-linecap="round" stroke-linejoin="round"/>
<path fill-rule="evenodd" clip-rule="evenodd" d="M46.0689 2.60086C54.7295 3.24756 57.4219 8.25843 57.3807 12.9171C59.7874 13.8625 61.5247 16.5666 61.5247 19.7549C61.5247 21.5216 59.7568 23.7602 56.2211 26.4708C50.7822 26.7399 46.392 26.5799 43.0505 25.9907C36.309 24.802 31.1079 20.7906 29.0026 20.7669C26.8973 20.7432 25.1482 21.2261 23.2987 24.9698C21.4493 28.7134 23.4811 31.6267 23.2987 34.6764C22.5573 38.4694 21.9733 41.8263 21.5469 44.7472L21.4975 45.0834L17.7066 36.0598H13.6067C11.4037 31.3044 9.3893 20.867 11.7909 17.4647C14.1926 14.0624 15.8937 14.6628 19.4962 15.5634C20.3583 11.0988 24.2518 8.73501 27.9744 6.58838L28.2021 6.45721C31.5043 4.55592 37.4083 1.95416 46.0689 2.60086Z" fill="black" stroke="black" stroke-width="1.20081" stroke-linecap="round" stroke-linejoin="round"/>
</svg>
